<svg width="212" height="75" viewBox="0 0 212 75" fill="none" xmlns="http://www.w3.org/2000/svg">
<rect width="212" height="75" fill="#1E1E1E"/>
<g id="Homepage" clip-path="url(#clip0_0_1)">
<rect width="1512" height="6079" transform="translate(-100 -49)" fill="white"/>
<g id="Background">
<path id="Vector 4" d="M1412 -49H-100V797.881C82.6413 661.208 105.364 1008.72 552.568 648.284C726.953 507.733 779.418 910.33 1080.22 734.628C1381.02 558.927 1412 805.976 1412 797.881V-49Z" fill="#EEEEEE"/>
</g>
<g id="Main Top Nav">
<g clip-path="url(#clip1_0_1)">
<rect id="Rectangle 1" x="-100" y="-49" width="1512" height="140" fill="#EEEEEE"/>
<g id="Layer_1" clip-path="url(#clip2_0_1)">
<path id="Vector" d="M13.061 58.7962C9.40071 58.7962 6.63359 58.0727 4.75345 56.6256C2.87331 55.1786 1.60843 53.1342 0.965056 50.4926C0.321685 47.851 0 44.7783 0 41.2746V31.1423C0 27.4354 0.334178 24.2734 1.00566 21.6564C1.67401 19.0394 2.95138 17.0351 4.83153 15.6373C6.71167 14.2395 9.45692 13.5406 13.0642 13.5406C16.3091 13.5406 18.8233 14.061 20.6004 15.1016C22.3774 16.1423 23.6017 17.6909 24.2701 19.7506C24.9384 21.8073 25.2757 24.3596 25.2757 27.4076V29.9969H17.7801V27.3307C17.7801 25.4003 17.6521 23.8762 17.3929 22.7586C17.1336 21.641 16.6714 20.8282 16.0031 20.3202C15.3316 19.8122 14.379 19.5567 13.1423 19.5567C11.8024 19.5567 10.7718 19.8615 10.0503 20.4711C9.32887 21.0807 8.85103 22.109 8.61992 23.556C8.3888 25.0031 8.27325 26.9735 8.27325 29.4612V43.3282C8.27325 47.0874 8.63241 49.6028 9.35386 50.8713C10.0753 52.1429 11.3621 52.7771 13.2172 52.7771C14.607 52.7771 15.6252 52.46 16.2685 51.8257C16.9119 51.1915 17.3242 50.2894 17.5053 49.1195C17.6864 47.9526 17.777 46.6318 17.777 45.157V41.5764H25.2726V44.6244C25.2726 47.5708 24.9259 50.1108 24.2295 52.2445C23.533 54.3781 22.2962 56.0037 20.5191 57.1213C18.7421 58.2389 16.256 58.7962 13.061 58.7962Z" fill="#F47820"/>
<path id="Vector_2" d="M40.6541 58.7962C38.9021 58.7962 37.3561 58.3005 36.0163 57.3091C34.6764 56.3177 33.6208 55.0493 32.8463 53.5006C32.0748 51.952 31.6876 50.314 31.6876 48.5868C31.6876 45.8436 32.1529 43.5345 33.0774 41.6533C34.0049 39.7752 35.2792 38.1866 36.9032 36.8904C38.5273 35.5942 40.4074 34.4643 42.5468 33.5006C44.683 32.5369 46.9379 31.5948 49.3084 30.6804V27.5554C49.3084 25.7789 49.2054 24.3042 48.9992 23.1373C48.7931 21.9704 48.3684 21.093 47.725 20.508C47.0816 19.9261 46.1134 19.6305 44.8267 19.6305C43.693 19.6305 42.7779 19.8861 42.0814 20.391C41.385 20.899 40.8821 21.6225 40.5729 22.5616C40.2638 23.5006 40.1076 24.6059 40.1076 25.8744V28.085L31.9156 27.7802C32.0186 22.9033 33.1523 19.3103 35.3167 16.9982C37.481 14.686 40.829 13.5314 45.3639 13.5314C49.8987 13.5314 52.9375 14.726 54.7927 17.1121C56.6478 19.5012 57.5754 22.9526 57.5754 27.4754V47.5893C57.5754 48.9594 57.6129 50.2833 57.691 51.5517C57.7691 52.8233 57.8721 54.0025 58.0002 55.0954C58.1282 56.1884 58.2438 57.2168 58.3468 58.1804H50.7732C50.617 57.3676 50.4265 56.3393 50.1923 55.0954C49.9612 53.8516 49.7925 52.7217 49.6894 51.7057C49.1741 53.4329 48.181 55.0462 46.7131 56.5425C45.2452 58.0419 43.2214 58.79 40.6448 58.79L40.6541 58.7962ZM43.8991 51.7857C44.7236 51.7857 45.495 51.5579 46.2165 51.0991C46.9379 50.6404 47.5813 50.1232 48.1497 49.5382C48.715 48.9563 49.1023 48.4852 49.3084 48.1281V35.6312C48.0186 36.3424 46.8099 37.0536 45.6762 37.7648C44.5425 38.476 43.5493 39.2241 42.6998 40.0123C41.8503 40.8005 41.1788 41.6872 40.6916 42.6786C40.2013 43.67 39.9577 44.7999 39.9577 46.0684C39.9577 47.8479 40.2919 49.2426 40.9633 50.2586C41.6317 51.2746 42.6124 51.7826 43.8991 51.7826V51.7857Z" fill="#F47820"/>
<path id="Vector_3" d="M65.5395 58.1866V14.1472H73.8096V18.4914C75.3025 17.1213 76.9515 15.9514 78.7567 14.9877C80.5588 14.024 82.5451 13.5406 84.7094 13.5406C86.5115 13.5406 87.8888 13.9963 88.8445 14.9107C89.7971 15.8251 90.4685 16.9674 90.8527 18.3405C91.24 19.7106 91.4336 21.1084 91.4336 22.5308V58.1897H83.1635V24.8923C83.1635 23.319 82.9324 22.0998 82.467 21.2346C82.0048 20.3725 81.0491 19.9384 79.6062 19.9384C78.6786 19.9384 77.7136 20.2063 76.7079 20.7389C75.7022 21.2716 74.7372 21.9212 73.8096 22.6817V58.1866H65.5395Z" fill="#006838"/>
<path id="Vector_4" d="M107.508 58.7962C105.756 58.7962 104.21 58.3005 102.871 57.3091C101.531 56.3177 100.475 55.0493 99.7006 53.5006C98.9291 51.952 98.5419 50.314 98.5419 48.5868C98.5419 45.8436 99.0072 43.5345 99.9317 41.6533C100.859 39.7752 102.134 38.1866 103.758 36.8904C105.382 35.5942 107.262 34.4643 109.401 33.5006C111.537 32.5369 113.792 31.5948 116.163 30.6804V27.5554C116.163 25.7789 116.06 24.3042 115.854 23.1373C115.647 21.9704 115.223 21.093 114.579 20.508C113.936 19.9261 112.968 19.6305 111.681 19.6305C110.547 19.6305 109.632 19.8861 108.936 20.391C108.239 20.899 107.736 21.6225 107.427 22.5616C107.118 23.5006 106.962 24.6059 106.962 25.8744V28.085L98.7699 27.7802C98.8729 22.9033 100.007 19.3103 102.171 16.9982C104.335 14.686 107.683 13.5314 112.218 13.5314C116.753 13.5314 119.792 14.726 121.647 17.1121C123.502 19.5012 124.43 22.9526 124.43 27.4754V47.5893C124.43 48.9594 124.467 50.2833 124.545 51.5517C124.623 52.8233 124.726 54.0025 124.854 55.0954C124.983 56.1884 125.098 57.2168 125.201 58.1804H117.627C117.474 57.3676 117.281 56.3393 117.047 55.0954C116.815 53.8516 116.647 52.7217 116.544 51.7057C116.028 53.4329 115.035 55.0462 113.567 56.5425C112.1 58.0419 110.076 58.79 107.499 58.79L107.508 58.7962ZM110.753 51.7857C111.578 51.7857 112.349 51.5579 113.071 51.0991C113.792 50.6404 114.436 50.1231 115.004 49.5382C115.569 48.9563 115.957 48.4852 116.163 48.1281V35.6312C114.873 36.3424 113.664 37.0536 112.53 37.7648C111.397 38.476 110.404 39.2241 109.554 40.0123C108.705 40.8005 108.033 41.6872 107.546 42.6786C107.056 43.6699 106.812 44.7999 106.812 46.0684C106.812 47.8479 107.146 49.2426 107.818 50.2586C108.486 51.2746 109.467 51.7826 110.753 51.7826V51.7857Z" fill="#F47820"/>
<path id="Vector_5" d="M130.155 74.3904V12.6755H138.425V74.3904H130.155Z" fill="#F47820"/>
<path id="Vector_6" d="M148.744 74.3904V30.351H157.014V74.3904H148.744Z" fill="#006838"/>
<path id="Vector_7" d="M167.404 74.3904V36.3701H162.073V30.351H167.404V28.0665C167.404 25.3233 167.623 22.9741 168.06 21.0191C168.498 19.064 169.413 17.5523 170.806 16.4871C172.195 15.4218 174.285 14.8861 177.064 14.8861C178.095 14.8861 179.01 14.923 179.81 15C180.609 15.077 181.496 15.2155 182.477 15.4187V21.3608C182.011 21.2592 181.496 21.1699 180.931 21.093C180.362 21.016 179.85 20.9791 179.385 20.9791C177.786 20.9791 176.768 21.4994 176.334 22.54C175.896 23.5807 175.678 24.9661 175.678 26.6933V30.351H182.48V36.3701H175.678V74.3904H167.408H167.404Z" fill="#F47820"/>
<path id="Vector_8" d="M199.326 75C195.822 75 193.117 74.3288 191.212 72.9803C189.307 71.6348 187.98 69.6552 187.233 67.0382C186.487 64.4212 186.112 61.21 186.112 57.3984V47.3399C186.112 43.4298 186.499 40.1786 187.271 37.5862C188.045 34.9969 189.398 33.0419 191.328 31.718C193.261 30.3971 195.925 29.7383 199.326 29.7383C203.086 29.7383 205.857 30.5018 207.634 32.0228C209.411 33.5468 210.582 35.7451 211.15 38.6145C211.716 41.484 212 44.9261 212 48.9378V52.5185H194.379V61.3577C194.379 63.1373 194.545 64.5843 194.882 65.702C195.216 66.8196 195.756 67.6447 196.506 68.1773C197.252 68.71 198.217 68.9778 199.404 68.9778C200.591 68.9778 201.581 68.6853 202.225 68.1004C202.868 67.5185 203.305 66.6779 203.539 65.585C203.77 64.492 203.886 63.2112 203.886 61.7364V59.0702H211.925V60.7451C211.925 65.1632 210.969 68.6453 209.064 71.1822C207.159 73.7223 203.911 74.9907 199.326 74.9907V75ZM194.379 48.1034H203.886V44.141C203.886 42.3122 203.783 40.7758 203.577 39.532C203.371 38.2882 202.946 37.3491 202.303 36.7118C201.656 36.0776 200.641 35.7605 199.248 35.7605C197.855 35.7605 196.89 36.0653 196.197 36.6749C195.503 37.2845 195.026 38.3128 194.766 39.7598C194.507 41.2069 194.379 43.202 194.379 45.742V48.1034Z" fill="#F47820"/>
<g id="Group">
<path id="Vector_9" d="M152.879 0C152.922 0.323276 153.157 1.57943 153.616 2.43534C154.122 3.37438 153.722 4.20259 153.722 4.20259C153.728 4.19951 153.737 4.19643 153.744 4.19027C154.012 4.03633 154.122 3.55296 154.122 3.55296C154.446 4.75985 154.131 5.625 154.131 5.625C154.509 5.34483 154.606 5.01539 154.606 5.01539C154.996 6.04372 154.571 7.37993 154.571 7.37993C154.849 7.21367 155.049 6.83497 155.049 6.83497C155.227 8.09421 154.743 8.95628 154.743 8.95628C155.049 8.80234 155.255 8.53756 155.255 8.53756C155.377 9.58128 154.934 10.9021 154.934 10.9021C155.252 10.7882 155.418 10.4187 155.418 10.4187C155.477 11.4563 154.79 12.8294 154.79 12.8294C155.127 12.6693 155.477 12.303 155.477 12.303C155.427 13.3713 154.621 14.532 154.621 14.532C155.037 14.5228 155.405 14.2672 155.405 14.2672C155.315 15.5511 154.293 16.7611 154.293 16.7611C154.609 16.718 154.949 16.4132 154.949 16.4132C154.949 16.4132 153.091 19.4797 152.882 21.4378C152.607 19.4951 150.674 16.4286 150.674 16.4286C150.674 16.4286 151.042 16.7026 151.473 16.7611C151.473 16.7611 150.452 15.5542 150.361 14.2672C150.361 14.2672 150.73 14.5228 151.145 14.532C151.145 14.532 150.339 13.3713 150.29 12.303C150.29 12.303 150.639 12.6663 150.977 12.8294C150.977 12.8294 150.29 11.4563 150.349 10.4187C150.349 10.4187 150.514 10.7882 150.833 10.9021C150.833 10.9021 150.389 9.58128 150.511 8.53756C150.511 8.53756 150.717 8.80542 151.023 8.95628C151.023 8.95628 150.539 8.09113 150.717 6.83497C150.717 6.83497 150.917 7.21675 151.195 7.37993C151.195 7.37993 150.77 6.0468 151.161 5.01539C151.161 5.01539 151.255 5.34483 151.636 5.625C151.636 5.625 151.32 4.75985 151.645 3.55296C151.645 3.55296 151.754 4.03325 152.023 4.19027C152.029 4.19335 152.038 4.19951 152.045 4.20259C152.045 4.20259 151.676 3.3713 152.151 2.43534C152.76 1.23461 152.847 0.341749 152.888 0L152.879 0Z" fill="#F47820"/>
<path id="Vector_10" d="M167.336 7.17981C167.148 7.42304 166.455 8.41442 166.183 9.28264C165.883 10.2402 165.062 10.5265 165.062 10.5265C165.068 10.5265 165.078 10.5326 165.084 10.5326C165.365 10.6065 165.765 10.3571 165.765 10.3571C165.168 11.3732 164.375 11.7426 164.375 11.7426C164.815 11.8042 165.103 11.6472 165.103 11.6472C164.669 12.5862 163.485 13.1958 163.485 13.1958C163.782 13.2666 164.172 13.1435 164.172 13.1435C163.441 14.0979 162.539 14.3535 162.539 14.3535C162.845 14.452 163.16 14.4089 163.16 14.4089C162.539 15.1817 161.352 15.7697 161.352 15.7697C161.639 15.9052 161.998 15.7666 161.998 15.7666C161.339 16.4963 159.956 16.9581 159.956 16.9581C160.287 17.0721 160.768 17.0597 160.768 17.0597C160.015 17.7371 158.697 17.9803 158.697 17.9803C158.978 18.2451 159.397 18.3159 159.397 18.3159C158.469 19.1102 156.976 19.2457 156.976 19.2457C157.217 19.4243 157.648 19.4458 157.648 19.4458C157.648 19.4458 154.343 20.2679 152.885 21.4317C154.015 19.96 154.793 16.6533 154.793 16.6533C154.793 16.6533 154.852 17.0751 155.099 17.3984C155.099 17.3984 155.233 15.9267 156.042 15.0123C156.042 15.0123 156.114 15.4249 156.383 15.702C156.383 15.702 156.63 14.4027 157.317 13.6607C157.317 13.6607 157.304 14.1318 157.42 14.4612C157.42 14.4612 157.888 13.0973 158.628 12.4477C158.628 12.4477 158.488 12.8017 158.625 13.085C158.625 13.085 159.222 11.915 160.006 11.3023C160.006 11.3023 159.962 11.6164 160.062 11.915C160.062 11.915 160.324 11.0222 161.289 10.3048C161.289 10.3048 161.164 10.6897 161.236 10.9821C161.236 10.9821 161.855 9.81836 162.807 9.38732C162.807 9.38732 162.648 9.67057 162.71 10.1047C162.71 10.1047 163.082 9.32267 164.116 8.73461C164.116 8.73461 163.863 9.12562 163.938 9.40579C163.938 9.41195 163.941 9.42119 163.944 9.42735C163.944 9.42735 164.259 8.63301 165.206 8.32205C166.421 7.9218 167.083 7.38609 167.339 7.18597L167.336 7.17981Z" fill="#006838"/>
<path id="Vector_11" d="M166.43 21.4316C166.227 21.4593 165.431 21.601 164.89 21.8842C164.297 22.1952 163.772 21.9489 163.772 21.9489C163.772 21.952 163.778 21.9581 163.778 21.9612C163.875 22.1275 164.181 22.1921 164.181 22.1921C163.419 22.3922 162.873 22.1983 162.873 22.1983C163.051 22.4323 163.257 22.4877 163.257 22.4877C162.607 22.7278 161.761 22.4661 161.761 22.4661C161.864 22.6355 162.108 22.7586 162.108 22.7586C161.311 22.8694 160.765 22.5708 160.765 22.5708C160.861 22.7586 161.03 22.8848 161.03 22.8848C160.371 22.9587 159.534 22.6878 159.534 22.6878C159.606 22.8848 159.84 22.9864 159.84 22.9864C159.184 23.0234 158.316 22.6016 158.316 22.6016C158.419 22.8079 158.647 23.0234 158.647 23.0234C157.972 22.9926 157.239 22.4969 157.239 22.4969C157.245 22.7525 157.407 22.9772 157.407 22.9772C156.595 22.9218 155.83 22.2937 155.83 22.2937C155.858 22.4877 156.049 22.697 156.049 22.697C156.049 22.697 154.109 21.5548 152.872 21.4255C154.103 21.2561 156.039 20.0677 156.039 20.0677C156.039 20.0677 155.867 20.2925 155.83 20.5573C155.83 20.5573 156.592 19.9292 157.407 19.8738C157.407 19.8738 157.245 20.1016 157.239 20.3541C157.239 20.3541 157.972 19.8584 158.647 19.8276C158.647 19.8276 158.416 20.0431 158.316 20.2494C158.316 20.2494 159.184 19.8276 159.84 19.8645C159.84 19.8645 159.606 19.9661 159.534 20.1632C159.534 20.1632 160.371 19.8922 161.03 19.9661C161.03 19.9661 160.861 20.0924 160.765 20.2802C160.765 20.2802 161.311 19.9815 162.108 20.0924C162.108 20.0924 161.867 20.2155 161.761 20.3848C161.761 20.3848 162.604 20.1231 163.257 20.3633C163.257 20.3633 163.048 20.4218 162.873 20.6558C162.873 20.6558 163.419 20.4618 164.181 20.6619C164.181 20.6619 163.875 20.7297 163.778 20.8928C163.778 20.8959 163.772 20.9021 163.772 20.9052C163.772 20.9052 164.3 20.6804 164.89 20.9698C165.649 21.3454 166.215 21.3978 166.43 21.4224V21.4316Z" fill="#F47820"/>
<path id="Vector_12" d="M157.638 26.1238C157.557 26.0622 157.226 25.8374 156.936 25.7482C156.617 25.6527 156.52 25.3848 156.52 25.3848V25.391C156.495 25.4834 156.58 25.6127 156.58 25.6127C156.239 25.4187 156.117 25.1632 156.117 25.1632C156.095 25.3048 156.149 25.4002 156.149 25.4002C155.836 25.2586 155.63 24.8768 155.63 24.8768C155.605 24.9723 155.646 25.0985 155.646 25.0985C155.327 24.8615 155.243 24.569 155.243 24.569C155.208 24.6675 155.224 24.7722 155.224 24.7722C154.965 24.569 154.768 24.1841 154.768 24.1841C154.724 24.2765 154.768 24.3935 154.768 24.3935C154.525 24.178 154.371 23.7315 154.371 23.7315C154.334 23.8393 154.337 23.9932 154.337 23.9932C154.112 23.75 154.031 23.322 154.031 23.322C153.944 23.4144 153.919 23.5499 153.919 23.5499C153.653 23.2482 153.609 22.7648 153.609 22.7648C153.55 22.8417 153.544 22.9834 153.544 22.9834C153.544 22.9834 153.269 21.9119 152.882 21.4378C153.372 21.8042 154.478 22.0566 154.478 22.0566C154.478 22.0566 154.337 22.0751 154.228 22.1552C154.228 22.1552 154.718 22.1983 155.024 22.46C155.024 22.46 154.887 22.4846 154.793 22.5708C154.793 22.5708 155.227 22.6509 155.474 22.8725C155.474 22.8725 155.318 22.8695 155.205 22.9064C155.205 22.9064 155.661 23.0573 155.877 23.2974C155.877 23.2974 155.758 23.2512 155.664 23.2974C155.664 23.2974 156.055 23.4914 156.261 23.7469C156.261 23.7469 156.158 23.7315 156.055 23.7654C156.055 23.7654 156.352 23.8516 156.592 24.1626C156.592 24.1626 156.464 24.1225 156.367 24.1472C156.367 24.1472 156.758 24.3473 156.898 24.6582C156.898 24.6582 156.804 24.6059 156.658 24.6275C156.658 24.6275 156.917 24.7475 157.114 25.0831C157.114 25.0831 156.982 25 156.889 25.0246H156.883C156.883 25.0246 157.148 25.1262 157.251 25.4341C157.385 25.8282 157.563 26.0437 157.632 26.1268L157.638 26.1238Z" fill="#006838"/>
<path id="Vector_13" d="M148.122 26.1238C148.184 26.0437 148.412 25.7174 148.503 25.431C148.6 25.117 148.872 25.0215 148.872 25.0215H148.865C148.772 24.9969 148.64 25.08 148.64 25.08C148.837 24.7445 149.096 24.6244 149.096 24.6244C148.953 24.6028 148.856 24.6552 148.856 24.6552C149 24.3473 149.387 24.1441 149.387 24.1441C149.29 24.1195 149.162 24.1595 149.162 24.1595C149.403 23.8454 149.699 23.7623 149.699 23.7623C149.599 23.7284 149.493 23.7438 149.493 23.7438C149.699 23.4883 150.09 23.2943 150.09 23.2943C149.996 23.2512 149.877 23.2943 149.877 23.2943C150.096 23.0542 150.549 22.9033 150.549 22.9033C150.439 22.8664 150.28 22.8695 150.28 22.8695C150.527 22.6478 150.961 22.5677 150.961 22.5677C150.867 22.4815 150.73 22.4569 150.73 22.4569C151.036 22.1952 151.526 22.1521 151.526 22.1521C151.448 22.0936 151.305 22.0874 151.305 22.0874C151.305 22.0874 152.391 21.8165 152.872 21.4347C152.501 21.9181 152.245 23.008 152.245 23.008C152.245 23.008 152.226 22.8695 152.145 22.7617C152.145 22.7617 152.101 23.2451 151.835 23.5468C151.835 23.5468 151.81 23.4113 151.723 23.319C151.723 23.319 151.642 23.7469 151.417 23.9901C151.417 23.9901 151.42 23.8362 151.383 23.7254C151.383 23.7254 151.23 24.1749 150.986 24.3873C150.986 24.3873 151.033 24.2703 150.986 24.1779C150.986 24.1779 150.789 24.5628 150.53 24.766C150.53 24.766 150.546 24.6644 150.511 24.5628C150.511 24.5628 150.424 24.8553 150.108 25.0924C150.108 25.0924 150.149 24.9661 150.124 24.8707C150.124 24.8707 149.921 25.2555 149.606 25.3941C149.606 25.3941 149.659 25.3017 149.637 25.157C149.637 25.157 149.515 25.4126 149.175 25.6065C149.175 25.6065 149.259 25.4772 149.234 25.3848V25.3787C149.234 25.3787 149.131 25.6404 148.818 25.742C148.419 25.8744 148.2 26.0499 148.116 26.1176L148.122 26.1238Z" fill="#006838"/>
<path id="Vector_14" d="M139.327 21.4317C139.53 21.4039 140.327 21.2623 140.867 20.9791C141.46 20.6681 141.985 20.9144 141.985 20.9144C141.985 20.9113 141.979 20.9052 141.979 20.9021C141.882 20.7358 141.576 20.6712 141.576 20.6712C142.338 20.4711 142.884 20.665 142.884 20.665C142.706 20.431 142.5 20.3756 142.5 20.3756C143.15 20.1355 143.993 20.3972 143.993 20.3972C143.89 20.2278 143.647 20.1047 143.647 20.1047C144.443 19.9938 144.989 20.2925 144.989 20.2925C144.893 20.1047 144.724 19.9785 144.724 19.9785C145.383 19.9046 146.22 20.1755 146.22 20.1755C146.148 19.9785 145.914 19.8768 145.914 19.8768C146.57 19.8399 147.438 20.2617 147.438 20.2617C147.335 20.0554 147.107 19.8399 147.107 19.8399C147.782 19.8707 148.516 20.3664 148.516 20.3664C148.509 20.1108 148.347 19.8861 148.347 19.8861C149.159 19.9415 149.924 20.5696 149.924 20.5696C149.896 20.3756 149.705 20.1663 149.705 20.1663C149.705 20.1663 151.645 21.3085 152.882 21.4378C151.651 21.6071 149.715 22.7956 149.715 22.7956C149.715 22.7956 149.887 22.5708 149.924 22.306C149.924 22.306 149.162 22.9341 148.347 22.9895C148.347 22.9895 148.509 22.7617 148.516 22.5092C148.516 22.5092 147.782 23.0049 147.107 23.0357C147.107 23.0357 147.338 22.8202 147.438 22.6139C147.438 22.6139 146.57 23.0357 145.914 22.9988C145.914 22.9988 146.148 22.8972 146.22 22.7001C146.22 22.7001 145.386 22.9711 144.724 22.8972C144.724 22.8972 144.893 22.7709 144.989 22.5831C144.989 22.5831 144.443 22.8818 143.647 22.7709C143.647 22.7709 143.887 22.6478 143.993 22.4785C143.993 22.4785 143.15 22.7402 142.5 22.5C142.5 22.5 142.71 22.4415 142.888 22.2075C142.888 22.2075 142.341 22.4015 141.579 22.2014C141.579 22.2014 141.885 22.1336 141.982 21.9704C141.982 21.9674 141.988 21.9612 141.988 21.9581C141.988 21.9581 141.46 22.1829 140.87 21.8935C140.111 21.5179 139.546 21.4655 139.33 21.4409L139.327 21.4317Z" fill="#F47820"/>
<path id="Vector_15" d="M138.422 7.17981C138.609 7.42304 139.302 8.41442 139.574 9.28264C139.874 10.2402 140.695 10.5265 140.695 10.5265C140.689 10.5265 140.68 10.5326 140.673 10.5326C140.392 10.6065 139.992 10.3571 139.992 10.3571C140.589 11.3732 141.382 11.7426 141.382 11.7426C140.942 11.8042 140.655 11.6472 140.655 11.6472C141.089 12.5862 142.272 13.1958 142.272 13.1958C141.976 13.2666 141.588 13.1435 141.588 13.1435C142.319 14.0979 143.222 14.3535 143.222 14.3535C142.916 14.452 142.6 14.4089 142.6 14.4089C143.222 15.1817 144.409 15.7697 144.409 15.7697C144.121 15.9052 143.762 15.7666 143.762 15.7666C144.421 16.4963 145.805 16.9581 145.805 16.9581C145.474 17.0721 144.993 17.0597 144.993 17.0597C145.745 17.7371 147.063 17.9803 147.063 17.9803C146.782 18.2451 146.364 18.3159 146.364 18.3159C147.291 19.1102 148.784 19.2457 148.784 19.2457C148.544 19.4243 148.113 19.4458 148.113 19.4458C148.113 19.4458 151.417 20.2679 152.875 21.4317C151.745 19.96 150.967 16.6533 150.967 16.6533C150.967 16.6533 150.908 17.0751 150.661 17.3984C150.661 17.3984 150.527 15.9267 149.718 15.0123C149.718 15.0123 149.646 15.4249 149.378 15.702C149.378 15.702 149.131 14.4027 148.444 13.6607C148.444 13.6607 148.456 14.1318 148.341 14.4612C148.341 14.4612 147.872 13.0973 147.132 12.4477C147.132 12.4477 147.273 12.8017 147.135 13.085C147.135 13.085 146.539 11.915 145.755 11.3023C145.755 11.3023 145.798 11.6164 145.698 11.915C145.698 11.915 145.436 11.0222 144.471 10.3048C144.471 10.3048 144.596 10.6897 144.524 10.9821C144.524 10.9821 143.906 9.81836 142.953 9.38732C142.953 9.38732 143.112 9.67057 143.05 10.1047C143.05 10.1047 142.678 9.32267 141.645 8.73461C141.645 8.73461 141.898 9.12562 141.823 9.40579C141.823 9.41195 141.82 9.42119 141.816 9.42735C141.816 9.42735 141.501 8.63301 140.555 8.32205C139.34 7.9218 138.678 7.38609 138.422 7.18597V7.17981Z" fill="#006838"/>
<path id="Vector_16" d="M153.041 20.08H152.716V28.0603H153.041V20.08Z" fill="#006838"/>
</g>
</g>
</g>
</g>
</g>
<defs>
<clipPath id="clip0_0_1">
<rect width="1512" height="6079" fill="white" transform="translate(-100 -49)"/>
</clipPath>
<clipPath id="clip1_0_1">
<rect x="-100" y="-49" width="1512" height="140" fill="white"/>
</clipPath>
<clipPath id="clip2_0_1">
<rect width="212" height="75" fill="white"/>
</clipPath>
</defs>
</svg>
