<svg width="30" height="30" viewBox="0 0 30 30" fill="none" xmlns="http://www.w3.org/2000/svg">
<rect width="30" height="30" rx="10" fill="#F47820"/>
<path fill-rule="evenodd" clip-rule="evenodd" d="M5.75916 6.60416H6.84249L6.89666 6.61499C8.39833 6.64412 9.71043 7.63695 10.1467 9.07416L10.3633 9.82166H21.6625C22.6603 9.8262 23.6077 10.2604 24.2625 11.0133C24.9154 11.771 25.2043 12.7763 25.0533 13.765L24.4033 18.25C24.1868 19.9691 22.7343 21.2644 21.0017 21.2833H14.6317C13.1099 21.2777 11.7697 20.2802 11.3275 18.8242L8.58666 9.58332C8.37677 8.79052 7.66258 8.23602 6.84249 8.22916H5.75916C5.31042 8.22916 4.94666 7.86539 4.94666 7.41666C4.94666 6.96793 5.31042 6.60416 5.75916 6.60416ZM12.8875 18.3042C13.1175 19.0755 13.8268 19.6042 14.6317 19.6042H21.0017C21.8983 19.5944 22.6576 18.9403 22.8 18.055L23.45 13.5592C23.5385 13.0358 23.3942 12.4999 23.0548 12.0919C22.7154 11.6838 22.2148 11.4442 21.6842 11.4358H10.8508L12.8875 18.3042Z" fill="#FDFDFD"/>
<path d="M14.3825 22.5833C13.7842 22.5833 13.2992 23.0683 13.2992 23.6667C13.2992 24.265 13.7842 24.75 14.3825 24.75C14.9808 24.75 15.4658 24.265 15.4658 23.6667C15.4658 23.0683 14.9808 22.5833 14.3825 22.5833Z" fill="#FDFDFD"/>
<path d="M20.8825 22.5833C20.2842 22.5833 19.7992 23.0683 19.7992 23.6667C19.7992 24.265 20.2842 24.75 20.8825 24.75C21.4808 24.75 21.9658 24.265 21.9658 23.6667C21.9658 23.0683 21.4808 22.5833 20.8825 22.5833Z" fill="#FDFDFD"/>
</svg>
