<svg width="20" height="20" viewBox="0 0 20 20" fill="none" xmlns="http://www.w3.org/2000/svg">
<path fill-rule="evenodd" clip-rule="evenodd" d="M16.3167 13.925L16.5167 14.875C16.7062 15.6963 16.5191 16.5594 16.0064 17.2285C15.4937 17.8975 14.709 18.3027 13.8667 18.3333H6.13334C5.29099 18.3027 4.50631 17.8975 3.99363 17.2285C3.48095 16.5594 3.29381 15.6963 3.48334 14.875L3.68334 13.925C3.91337 12.639 5.01886 11.6939 6.32501 11.6667H13.675C14.9812 11.6939 16.0866 12.639 16.3167 13.925ZM13.8667 17.075C14.2898 17.0701 14.6881 16.8741 14.95 16.5417V16.55C15.2714 16.1468 15.3966 15.6215 15.2917 15.1167L15.0917 14.1667C14.9807 13.4627 14.3872 12.9355 13.675 12.9083H6.32501C5.61281 12.9355 5.01931 13.4627 4.90834 14.1667L4.70834 15.1167C4.60597 15.6188 4.73106 16.1405 5.05001 16.5417C5.31195 16.8741 5.71019 17.0701 6.13334 17.075H13.8667Z" fill="white"/>
<path fill-rule="evenodd" clip-rule="evenodd" d="M10.4167 10H9.58333C7.74238 10 6.24999 8.50762 6.24999 6.66667V4.46667C6.24777 3.72338 6.54206 3.0099 7.06764 2.48432C7.59323 1.95873 8.30671 1.66445 9.04999 1.66667H10.95C11.6933 1.66445 12.4068 1.95873 12.9323 2.48432C13.4579 3.0099 13.7522 3.72338 13.75 4.46667V6.66667C13.75 8.50762 12.2576 10 10.4167 10ZM9.04999 2.91667C8.19395 2.91667 7.5 3.61063 7.5 4.46667V6.66667C7.5 7.81726 8.43273 8.75 9.58333 8.75H10.4167C11.5673 8.75 12.5 7.81726 12.5 6.66667V4.46667C12.5 4.05558 12.3367 3.66133 12.046 3.37065C11.7553 3.07997 11.3611 2.91667 10.95 2.91667H9.04999Z" fill="white"/>
</svg>
