<svg width="117" height="140" viewBox="0 0 117 140" fill="none" xmlns="http://www.w3.org/2000/svg">
<g filter="url(#filter0_d_8_403)">
<rect x="2" y="20.3751" width="88" height="116" rx="10" transform="rotate(-13.3875 2 20.3751)" fill="white"/>
</g>
<path d="M65.0019 59.7251L50.5769 74.1501C49.8457 74.8822 49.8457 76.0681 50.5769 76.8001C50.9266 77.1542 51.4042 77.3525 51.9019 77.3501C52.4001 77.3554 52.8788 77.1566 53.2269 76.8001L67.6519 62.3751C68.1535 61.9077 68.36 61.2037 68.1903 60.5394C68.0207 59.8751 67.5019 59.3563 66.8376 59.1867C66.1732 59.017 65.4693 59.2235 65.0019 59.7251Z" fill="#F47820"/>
<circle cx="52.6268" cy="62.6251" r="1.875" fill="#F47820"/>
<circle cx="65.8268" cy="73.9001" r="1.875" fill="#F47820"/>
<path fill-rule="evenodd" clip-rule="evenodd" d="M84.5988 57.9285C85.4244 60.0664 84.8831 62.4911 83.2266 64.0749C82.0274 65.1468 81.3419 66.6789 81.3419 68.2874C81.3419 69.8958 82.0274 71.428 83.2266 72.4999C84.9564 74.0716 85.5457 76.5432 84.7111 78.7264C83.8765 80.9096 81.7888 82.3578 79.4516 82.3749H78.8266C77.2747 82.3867 75.7947 83.0308 74.7284 84.1584C73.6621 85.286 73.1017 86.7997 73.1766 88.3499C73.2595 89.9083 72.6941 91.4317 71.6145 92.5587C70.5349 93.6857 69.0372 94.3159 67.4766 94.2999C65.888 94.3005 64.376 93.6174 63.3266 92.4249C62.2505 91.2329 60.7199 90.5526 59.1141 90.5526C57.5083 90.5526 55.9776 91.2329 54.9016 92.4249C53.8521 93.6174 52.3401 94.3005 50.7516 94.2999C49.1818 94.3168 47.6757 93.6798 46.5945 92.5416C45.5132 91.4035 44.9542 89.8667 45.0516 88.2999C45.1195 86.7539 44.556 85.2468 43.4904 84.1247C42.4249 83.0026 40.9489 82.3619 39.4016 82.3499H38.7766C36.5407 82.2437 34.5761 80.8333 33.7606 78.7487C32.9451 76.6641 33.4312 74.295 35.0016 72.6999C36.1924 71.6284 36.8724 70.1018 36.8724 68.4999C36.8724 66.898 36.1924 65.3714 35.0016 64.2999C33.1734 62.7475 32.5184 60.2135 33.3654 57.9697C34.2125 55.7259 36.3786 54.2568 38.7766 54.2999H39.4016C40.9696 54.2964 42.4663 53.6443 43.5366 52.4983C44.6068 51.3522 45.1552 49.8145 45.0516 48.2499C44.9969 46.7083 45.5749 45.2115 46.6513 44.1067C47.7278 43.0019 49.2091 42.3852 50.7516 42.3999C52.3463 42.3955 53.8628 43.0899 54.9016 44.2999C55.9882 45.4816 57.5211 46.1529 59.1266 46.1499C60.7233 46.1459 62.2458 45.4752 63.3266 44.2999C64.3606 43.0806 65.8779 42.3768 67.4766 42.3749C69.0418 42.3584 70.5436 42.992 71.6241 44.1246C72.7045 45.2572 73.2667 46.7872 73.1766 48.3499C73.1015 49.8977 73.6626 51.4089 74.7297 52.5326C75.7967 53.6564 77.2769 54.2949 78.8266 54.2999H79.4516C81.7426 54.3591 83.7731 55.7906 84.5988 57.9285ZM80.4766 77.0749C80.6827 76.6395 80.5579 76.1193 80.1766 75.8249V75.6749C78.0814 73.7437 76.8896 71.0242 76.8896 68.1749C76.8896 65.3255 78.0814 62.606 80.1766 60.6749C80.5579 60.3805 80.6827 59.8603 80.4766 59.4249C80.3329 58.983 79.916 58.6882 79.4516 58.6999H78.8266C76.0376 58.6943 73.3724 57.547 71.4516 55.5249C69.5476 53.5032 68.5383 50.7997 68.6516 48.0249C68.6936 47.7265 68.6021 47.4247 68.4016 47.1999C68.1596 46.9476 67.8261 46.8034 67.4766 46.7999C67.1202 46.7668 66.7716 46.9176 66.5516 47.1999C64.6316 49.3183 61.9106 50.5337 59.0516 50.5499C56.1932 50.5306 53.4734 49.3158 51.5516 47.1999C51.3579 46.9539 51.0645 46.8073 50.7516 46.7999C50.402 46.8034 50.0686 46.9476 49.8266 47.1999C49.626 47.4247 49.5346 47.7265 49.5766 48.0249C49.7418 50.8281 48.744 53.5754 46.8183 55.6193C44.8927 57.6632 42.2097 58.8228 39.4016 58.8249H38.8516C38.3624 58.7872 37.9099 59.0855 37.7516 59.5499C37.5454 59.9853 37.6703 60.5055 38.0516 60.7999C40.1649 62.7235 41.3793 65.4422 41.4016 68.2999C41.3854 71.1589 40.17 73.8799 38.0516 75.7999C37.6703 76.0943 37.5454 76.6145 37.7516 77.0499C37.8785 77.5069 38.3025 77.8172 38.7766 77.7999H39.4016C42.1891 77.8105 44.8514 78.9587 46.7723 80.9787C48.6932 82.9987 49.7061 85.7154 49.5766 88.4999C49.5314 88.7909 49.6238 89.0864 49.8266 89.2999C50.0967 89.5692 50.4714 89.7063 50.8516 89.6749C51.1589 89.6672 51.449 89.5312 51.6516 89.2999C53.577 87.149 56.3273 85.9197 59.2141 85.9197C62.1009 85.9197 64.8511 87.149 66.7766 89.2999C66.9509 89.517 67.201 89.6599 67.4766 89.6999C67.8261 89.6963 68.1596 89.5521 68.4016 89.2999C68.6044 89.0864 68.6967 88.7909 68.6516 88.4999C68.5495 85.7268 69.5573 83.0276 71.4516 80.9999C73.3792 78.9874 76.04 77.842 78.8266 77.8249H79.3766C79.8751 77.869 80.3355 77.5551 80.4766 77.0749Z" fill="#F47820"/>
<defs>
<filter id="filter0_d_8_403" x="0.0413208" y="2.04134" width="116.384" height="137.14" filterUnits="userSpaceOnUse" color-interpolation-filters="sRGB">
<feFlood flood-opacity="0" result="BackgroundImageFix"/>
<feColorMatrix in="SourceAlpha" type="matrix" values="0 0 0 0 0 0 0 0 0 0 0 0 0 0 0 0 0 0 127 0" result="hardAlpha"/>
<feOffset dy="4"/>
<feGaussianBlur stdDeviation="2"/>
<feComposite in2="hardAlpha" operator="out"/>
<feColorMatrix type="matrix" values="0 0 0 0 0 0 0 0 0 0 0 0 0 0 0 0 0 0 0.05 0"/>
<feBlend mode="normal" in2="BackgroundImageFix" result="effect1_dropShadow_8_403"/>
<feBlend mode="normal" in="SourceGraphic" in2="effect1_dropShadow_8_403" result="shape"/>
</filter>
</defs>
</svg>
