<svg width="24" height="25" viewBox="0 0 24 25" fill="none" xmlns="http://www.w3.org/2000/svg">
<path d="M20.5805 11.3959L13.5805 4.10419C13.2 3.70971 12.6464 3.55664 12.1282 3.70264C11.6099 3.84864 11.2059 4.27153 11.0682 4.81202C10.9304 5.3525 11.08 5.92846 11.4605 6.32294L15.8905 10.9271H4.48047C3.65204 10.9271 2.98047 11.6267 2.98047 12.4896C2.98047 13.3526 3.65204 14.0521 4.48047 14.0521H15.8905L11.4605 18.6563C11.032 19.1031 10.904 19.7747 11.1359 20.3582C11.3678 20.9417 11.9142 21.3224 12.5205 21.3229C12.923 21.3167 13.3058 21.1399 13.5805 20.8334L20.5805 13.5417C21.1654 12.9317 21.1654 11.9434 20.5805 11.3334V11.3959Z" fill="black"/>
</svg>
