<svg width="117" height="140" viewBox="0 0 117 140" fill="none" xmlns="http://www.w3.org/2000/svg">
<g filter="url(#filter0_d_8_402)">
<rect width="88" height="116" rx="10" transform="matrix(-0.972827 -0.231535 -0.231535 0.972827 114.467 20.3751)" fill="black"/>
</g>
<path fill-rule="evenodd" clip-rule="evenodd" d="M82.85 57.7501L80.225 55.1251C78.9741 53.8601 77.2787 53.1335 75.5 53.1001H65.5V51.6501C65.5 47.8531 62.422 44.7751 58.625 44.7751H38C36.9645 44.7751 36.125 45.6145 36.125 46.6501C36.125 47.6856 36.9645 48.5251 38 48.5251H58.55C60.2759 48.5251 61.675 49.9242 61.675 51.6501V67.4751C61.675 68.5106 62.5145 69.3501 63.55 69.3501C64.5855 69.3501 65.425 68.5106 65.425 67.4751V56.8501H75.425C76.2535 56.8468 77.0477 57.1807 77.625 57.7751L80.25 60.2751C80.608 60.6462 80.866 61.1021 81 61.6001H70.5C69.4645 61.6001 68.625 62.4395 68.625 63.4751C68.625 64.5106 69.4645 65.3501 70.5 65.3501H81.125V75.9751C81.159 76.8253 80.8449 77.6527 80.2551 78.266C79.6653 78.8794 78.8509 79.2258 78 79.2251H75.225C74.6098 76.3406 72.0618 74.2789 69.1125 74.2789C66.1632 74.2789 63.6152 76.3406 63 79.2251H49.65C48.9771 76.2436 46.2318 74.1973 43.1823 74.4042C40.1329 74.6112 37.6892 77.0096 37.4253 80.0547C37.1614 83.0997 39.156 85.8828 42.1244 86.6113C45.0928 87.3398 48.1492 85.7963 49.325 82.9751H63.35C64.3245 85.2956 66.5957 86.8051 69.1125 86.8051C71.6293 86.8051 73.9005 85.2956 74.875 82.9751H78C81.797 82.9751 84.875 79.897 84.875 76.1001V62.6251C84.8784 60.7948 84.1492 59.0393 82.85 57.7501ZM43.55 82.5751C42.7107 82.616 41.9314 82.1406 41.5838 81.3756C41.2361 80.6105 41.3906 79.7108 41.9735 79.1055C42.5563 78.5003 43.4496 78.312 44.2272 78.6305C45.0048 78.949 45.5092 79.7098 45.5 80.5501C45.5007 81.6398 44.639 82.5347 43.55 82.5751ZM67.2038 81.3037C67.5196 82.0728 68.2686 82.575 69.1 82.5751C70.2225 82.5752 71.1363 81.6725 71.15 80.5501C71.1601 79.7187 70.6672 78.9636 69.902 78.6384C69.1368 78.3132 68.251 78.4824 67.6595 79.0666C67.068 79.6509 66.888 80.5346 67.2038 81.3037Z" fill="#F47820"/>
<path d="M54.875 58.8751C54.8615 57.8452 54.0299 57.0135 53 57.0001H33C31.9645 57.0001 31.125 57.8395 31.125 58.8751C31.125 59.9106 31.9645 60.7501 33 60.7501H53C54.0299 60.7366 54.8615 59.905 54.875 58.8751Z" fill="#F47820"/>
<path d="M53 64.5001H40.5C39.4645 64.5001 38.625 65.3395 38.625 66.3751C38.625 67.4106 39.4645 68.2501 40.5 68.2501H53C54.0355 68.2501 54.875 67.4106 54.875 66.3751C54.875 65.3395 54.0355 64.5001 53 64.5001Z" fill="#F47820"/>
<defs>
<filter id="filter0_d_8_402" x="0.0413361" y="2.04134" width="116.384" height="137.14" filterUnits="userSpaceOnUse" color-interpolation-filters="sRGB">
<feFlood flood-opacity="0" result="BackgroundImageFix"/>
<feColorMatrix in="SourceAlpha" type="matrix" values="0 0 0 0 0 0 0 0 0 0 0 0 0 0 0 0 0 0 127 0" result="hardAlpha"/>
<feOffset dy="4"/>
<feGaussianBlur stdDeviation="2"/>
<feComposite in2="hardAlpha" operator="out"/>
<feColorMatrix type="matrix" values="0 0 0 0 0 0 0 0 0 0 0 0 0 0 0 0 0 0 0.05 0"/>
<feBlend mode="normal" in2="BackgroundImageFix" result="effect1_dropShadow_8_402"/>
<feBlend mode="normal" in="SourceGraphic" in2="effect1_dropShadow_8_402" result="shape"/>
</filter>
</defs>
</svg>
