<svg width="30" height="30" viewBox="0 0 30 30" fill="none" xmlns="http://www.w3.org/2000/svg">
<rect width="30" height="30" rx="10" fill="#F47820"/>
<path d="M15.1 23.8C14.6 23.8 14 23.6 13.6 23.2C7.1 17.5 7 17.4 7 17.3L6.9 17.2C5.7 16 5 14.3 5 12.6V12.4C5.1 8.8 8 6 11.6 6C12.7 6 14.2 6.6 15.1 7.8C16 6.6 17.6 6 18.7 6C22.3 6 25.1 8.8 25.3 12.4V12.6C25.3 14.4 24.6 16 23.4 17.3L23.3 17.4C23.2 17.5 22.4 18.2 16.7 23.3C16.2 23.6 15.7 23.8 15.1 23.8ZM8.5 17C8.9 17.4 10.9 18.8 14.6 22C14.9 22.3 15.3 22.3 15.6 22C19.4 18.6 21.6 16.7 22.1 16.3L22.2 16.2C23.2 15.2 23.7 13.9 23.7 12.6V12.4C23.6 9.6 21.4 7.5 18.6 7.5C17.9 7.5 16.5 8 16 9.1C15.8 9.5 15.4 9.7 15 9.7C14.6 9.7 14.2 9.5 14 9.1C13.5 8.1 12.2 7.5 11.4 7.5C8.7 7.5 6.4 9.7 6.3 12.4V12.7C6.3 14 6.9 15.3 7.8 16.2L8.5 17Z" fill="white"/>
</svg>
